<svg xmlns="http://www.w3.org/2000/svg" width="160" height="64"><rect x="0" y="48" width="16" height="16" fill="white" stroke="#999" stroke-width="0.5"/><rect x="16" y="48" width="16" height="16" fill="white" stroke="#999" stroke-width="0.5"/><path d="M29,51 L19,56 L29,61" fill="none" stroke="#333" stroke-width="1.5"/><rect x="32" y="48" width="16" height="16" fill="white" stroke="#999" stroke-width="0.5"/><rect x="48" y="48" width="16" height="16" fill="white" stroke="#999" stroke-width="0.5"/><rect x="64" y="48" width="16" height="16" fill="white" stroke="#999" stroke-width="0.5"/><rect x="80" y="48" width="16" height="16" fill="white" stroke="#999" stroke-width="0.5"/><rect x="96" y="48" width="16" height="16" fill="white" stroke="#999" stroke-width="0.5"/><rect x="112" y="48" width="16" height="16" fill="white" stroke="#999" stroke-width="0.5"/><rect x="128" y="48" width="16" height="16" fill="white" stroke="#999" stroke-width="0.5"/><rect x="144" y="48" width="16" height="16" fill="white" stroke="#999" stroke-width="0.5"/><rect x="160" y="48" width="16" height="16" fill="white" stroke="#999" stroke-width="0.5"/><path d="M163,51 L173,56 L163,61" fill="none" stroke="#333" stroke-width="1.5"/><rect x="176" y="48" width="16" height="16" fill="white" stroke="#999" stroke-width="0.5"/><rect x="0" y="32" width="16" height="16" fill="white" stroke="#999" stroke-width="0.5"/><circle cx="8" cy="40" r="3.2" fill="#333"/><rect x="16" y="32" width="16" height="16" fill="white" stroke="#999" stroke-width="0.5"/><circle cx="24" cy="40" r="3.2" fill="#333"/><rect x="32" y="32" width="16" height="16" fill="white" stroke="#999" stroke-width="0.5"/><circle cx="40" cy="40" r="3.2" fill="#333"/><rect x="48" y="32" width="16" height="16" fill="white" stroke="#999" stroke-width="0.5"/><circle cx="56" cy="40" r="3.2" fill="#333"/><rect x="64" y="32" width="16" height="16" fill="white" stroke="#999" stroke-width="0.5"/><circle cx="72" cy="40" r="3.2" fill="#333"/><rect x="80" y="32" width="16" height="16" fill="white" stroke="#999" stroke-width="0.5"/><circle cx="88" cy="40" r="3.2" fill="#333"/><rect x="96" y="32" width="16" height="16" fill="white" stroke="#999" stroke-width="0.5"/><circle cx="104" cy="40" r="3.2" fill="#333"/><rect x="112" y="32" width="16" height="16" fill="white" stroke="#999" stroke-width="0.5"/><circle cx="120" cy="40" r="3.2" fill="#333"/><rect x="128" y="32" width="16" height="16" fill="white" stroke="#999" stroke-width="0.5"/><circle cx="136" cy="40" r="3.2" fill="#333"/><rect x="144" y="32" width="16" height="16" fill="white" stroke="#999" stroke-width="0.5"/><circle cx="152" cy="40" r="3.2" fill="#333"/><rect x="160" y="32" width="16" height="16" fill="white" stroke="#999" stroke-width="0.5"/><circle cx="168" cy="40" r="3.2" fill="#333"/><rect x="176" y="32" width="16" height="16" fill="white" stroke="#999" stroke-width="0.5"/><circle cx="184" cy="40" r="3.2" fill="#333"/><rect x="0" y="16" width="16" height="16" fill="white" stroke="#999" stroke-width="0.5"/><rect x="16" y="16" width="16" height="16" fill="white" stroke="#999" stroke-width="0.5"/><circle cx="24" cy="24" r="4" fill="none" stroke="#333" stroke-width="1"/><rect x="32" y="16" width="16" height="16" fill="white" stroke="#999" stroke-width="0.5"/><line x1="35" y1="19" x2="45" y2="29" stroke="#333" stroke-width="1.5"/><rect x="48" y="16" width="16" height="16" fill="white" stroke="#999" stroke-width="0.5"/><rect x="64" y="16" width="16" height="16" fill="white" stroke="#999" stroke-width="0.5"/><rect x="80" y="16" width="16" height="16" fill="white" stroke="#999" stroke-width="0.5"/><rect x="96" y="16" width="16" height="16" fill="white" stroke="#999" stroke-width="0.5"/><rect x="112" y="16" width="16" height="16" fill="white" stroke="#999" stroke-width="0.5"/><rect x="128" y="16" width="16" height="16" fill="white" stroke="#999" stroke-width="0.5"/><rect x="144" y="16" width="16" height="16" fill="white" stroke="#999" stroke-width="0.5"/><line x1="147" y1="29" x2="157" y2="19" stroke="#333" stroke-width="1.5"/><rect x="160" y="16" width="16" height="16" fill="white" stroke="#999" stroke-width="0.5"/><circle cx="168" cy="24" r="4" fill="none" stroke="#333" stroke-width="1"/><rect x="176" y="16" width="16" height="16" fill="white" stroke="#999" stroke-width="0.5"/><rect x="0" y="0" width="16" height="16" fill="white" stroke="#999" stroke-width="0.5"/><circle cx="8" cy="8" r="3.2" fill="#333"/><rect x="16" y="0" width="16" height="16" fill="white" stroke="#999" stroke-width="0.5"/><circle cx="24" cy="8" r="3.2" fill="#333"/><rect x="32" y="0" width="16" height="16" fill="white" stroke="#999" stroke-width="0.5"/><circle cx="40" cy="8" r="3.2" fill="#333"/><rect x="48" y="0" width="16" height="16" fill="white" stroke="#999" stroke-width="0.5"/><circle cx="56" cy="8" r="3.2" fill="#333"/><rect x="64" y="0" width="16" height="16" fill="white" stroke="#999" stroke-width="0.5"/><circle cx="72" cy="8" r="3.2" fill="#333"/><rect x="80" y="0" width="16" height="16" fill="white" stroke="#999" stroke-width="0.5"/><circle cx="88" cy="8" r="3.2" fill="#333"/><rect x="96" y="0" width="16" height="16" fill="white" stroke="#999" stroke-width="0.5"/><circle cx="104" cy="8" r="3.2" fill="#333"/><rect x="112" y="0" width="16" height="16" fill="white" stroke="#999" stroke-width="0.5"/><circle cx="120" cy="8" r="3.2" fill="#333"/><rect x="128" y="0" width="16" height="16" fill="white" stroke="#999" stroke-width="0.5"/><circle cx="136" cy="8" r="3.2" fill="#333"/><rect x="144" y="0" width="16" height="16" fill="white" stroke="#999" stroke-width="0.5"/><circle cx="152" cy="8" r="3.2" fill="#333"/><rect x="160" y="0" width="16" height="16" fill="white" stroke="#999" stroke-width="0.5"/><circle cx="168" cy="8" r="3.2" fill="#333"/><rect x="176" y="0" width="16" height="16" fill="white" stroke="#999" stroke-width="0.5"/><circle cx="184" cy="8" r="3.2" fill="#333"/></svg>